<svg xmlns="http://www.w3.org/2000/svg" xml:space="preserve" baseProfile="tiny" version="1.2" viewBox="0 0 764 573" style="background:#000">
  <path fill="#057D8E" d="M106 570h-3l-7-4c-5-5-11-8-16-10s-5-9 1-11h15c10 3 19 8 30 7 10-1 19-6 26-13l1 1c-3 8-9 13-18 17v1l7 2v2h-41l-2-1v1l7 8zM12 460c1-7 4-13 9-19l2-4 1 1-2 5v12l5 20c2 14-8 21-12 33h-1l-2-6-1-18h1c2 1 4-1 3-3l-8-25c-1-1-1-1 0 0l5 4c0 1 0 1 0 0z"/>
  <path fill="#0C8241" d="m452 234-4-5v-2l7-10 2-2 9-4c2-1 3 1 4 2l4 4v1c1 3-2 7-3 10-3 4-10 7-14 10-2 1-4-2-5-4z"/>
  <path fill="#0D6469" d="m121 125 11-16 7-10 15-29c2-6 11-27 18-24l1 5c-4 20-8 40-16 59-5 14-3 27 0 41l1 2h-2c-9 2-20-2-28-6l-5-4c-5-4-5-12-2-18zM53 63c9-4 17-13 24-20 11-11 24-21 37-31 7-5 8 2 6 6l-8 12c-10 12-21 25-30 39-5 10-9 25-22 28-4 1-8 0-11-2-7-5-19-15-19-24v-1l1-1c8-1 15-3 22-6z"/>
  <path fill="#13A89E" d="M268 346c1-2 2-4 1-7 0-5 6-8 8-12 8-9 11-20 10-33 0-1 0-1 0 0 7 7 4 22 1 30-2 5-7 11-10 15l-7 7-12 11 9-11zm74-114c3 8 5 16 10 22l-1 1c-7 1-12-6-13-13l-3-19h1l6 9z"/>
  <path fill="#2F3B4C" d="m272 134 1 1-1 1c-5 8-13 11-23 10l-2-2-5-12-2-11v-1l8-5 2 1c2 5 5 9 9 12 3 3 8 4 13 6zm0-43c7-7 12-12 12-23l1-1 8-4 1 1c0 6-1 12 1 18l3 7 1 2h-2c-9 1-16 5-19 13-2 4-3 11-3 17-1 3-1 3-2 0-3-7-5-16-4-25l3-5zm7 53c5 5 13 11 21 12 9 1 16 1 23-2 10-3 18-13 22-22l5-14c3-8 15-13 21-15l1 1v4c-3 11-5 20-11 31l-10 15c-3 4-7 6-12 8-16 5-33 5-51 3-9-1-17-5-24-12-1 0-2-1-1-2v-1c2-3 10-6 14-6h2z"/>
  <path fill="#2F3B4C" d="M314 127c9 0 14-24 15-30l1-1 3 3c9 9 10 24 3 34-6 11-18 18-31 17-12 0-21-8-21-20l-1-6-3-8c-1-8 5-13 12-17 3-1 8-2 9 1l2 12c2 5 4 16 11 15zm30-25-9-8v-1l1-1 8-7h2l1 14-1 3-1 1-1-1z"/>
  <path fill="#56626D" d="m596 286-15 4h-1l-2-14 17 2 1 8zm0-111 22-1v1l-4 5h-24v-24l6-5h1l-1 24zm22-29 6-1 1 1-1 6 22 2v1l-3 3h-29l-1-2v-28l1-4 1-1 1 1 2 21v1zm24 182 59-27 1 1 4 8-1 1-60 25h-1l-2-7v-1zm72-26 14 6 2 2 1 9-1 1-12-8-2-3-2-7zm11-75-13 5-3-5v-1l14-11h1l1 11v1zm30 54h1l2 8-1 3-13 22c-2 2-2 2-2 0l-1-6c-1-3-1-5 1-6l13-21z"/>
  <path fill="#625D49" d="M27 340c1 4 3 9 7 13l7 5v2c-5 1-9 1-12-1-7-4-11-14-3-20l1 1zm18-17c2 8 7 14 13 18l1 1v1h-1l-2 1c-7-4-13-11-14-19l1-2h2zm29 2c-7 0-13-10-14-16 0-2 0-3 2-5l18-20 2-3 1 1 8 25-2 4-15 14z"/>
  <path fill="#631F31" d="M675 31c-17 7-35 14-41 35l-2 8c-2 9-7 15-12 21-4 6-7 10-9 16l-10 15-16 17-1-2c5-12 5-26 5-39 0-5 4-10 8-13 6-4 12-7 17-14l3-7c3-8 5-15 11-21l11-7c8-3 19-8 28-9l8-1v1zm31 117c-12 5-16 15-21 22-3 5-6 6-11 7l-10 1c-9 0-18 1-27 4 0 1 0 1 0 0l13-16c4-5 11-8 17-12l10-6c4-4 9-10 16-12 7-4 16-5 23-10 13-7 20-23 25-38v-3l1 1-1 8c0 10-4 22-7 30-4 8-9 14-14 18l-14 6z"/>
  <path fill="#6ACAD4" d="m603 268 10-13 13 5v1l-6 9-17-2zm24 76c0-18-12-23-27-20-1 1-3 0-4-2 1 0 0 0 0 0 0-3 1-4 3-5 20-5 36 6 36 27 0 2-1 3-3 3h-1c-2 0-3-1-4-3zm7-28h-1c-5-5-11-7-18-8v-1l12-11h1l11 4v1l-5 15zm22-42c-3 2-6 4-7-1v-1l4-5c3-2 8-4 11-3l2 2v1l-5 5-5 2zm60-6-15 19-16-7 9-13h1l21 1zm-19-40-13 11h-1l-12-1v-1l4-12 1-1 20 3 1 1z"/>
  <path fill="#6D3A6E" d="M432 397c10 7 19 12 32 9l35-8v1c-3 3-9 4-13 5-3 1-6 5-10 6-16 8-38 4-50-10-1 0-2-1-1-2v-1c2-2 4-2 7 0zm15 147c4 3 3 8 9 10 3 1 6-2 8-1 8 1 15-1 22-3 6-1 12 0 16 4v1l-11 7c-5 4-10 6-17 5-28-1-47-16-61-38v-1c3-3 7-4 12-4h1c3 2 4 3 7 3l1 1c1 8 6 13 13 16z"/>
  <path fill="#6D3A6E" d="M479 515c2-2 8-4 11-3l6 1c7 1 12 3 17 6v1c-6 0-18-2-19 7-1 7 7 6 11 6l1 1c-2 3-6 2-9 2s-8 4-12 6c-11 4-24-2-34-7v-1c1-4-1-5-3-8l-2-2c3-4 6-7 10-8l7 1h5c5 0 6 1 11-2zm15-11c-1-2-3-2-5-3v-1l2-2c1-1 2-2 3-1l1 3 1 1v1l-1 2h-1zm-98-1h15l1 1c-4 2-7 5-9 9l-1 1-1-1-6-8c-1-1 0-1 1-2zm145 23c7-3 7-13 12-19 2-3 5-4 8-2 2 3 0 9 0 12-6 26-23 45-50 47-1 1-2 0-3-1v-1c-4-21 21-8 20-22 0-4-4-9-4-13 1-3 4-7 8-4 2 3 5 5 9 3z"/>
  <path fill="#704723" d="M229 298c2-2 2-7 2-10 0-13-1-28 1-39 3-18 14-35 30-44 17-8 39-9 57-7l1 1h-1l-6 1c-26 4-50 18-52 46v41l2 21-1 19-1 1c-8-3-15-8-22-14l-9-10c-2-2-2-4-1-6z"/>
  <path fill="#704723" d="M335 202c21 1 36 32 41 49 0 2 0 8-4 7-8-2-14-6-18-13-4-9-5-23-13-28-7-5-19-1-26 1-13 5-32 14-35 29l-1 13 1 24v11l1 11v1l-1 2-9 12c-1 1-2 1-1-1v-2c1-18-1-35-2-52l1-17c2-22 17-35 38-42 11-3 20-5 28-5z"/>
  <path fill="#70C057" d="M429 59c0 4-3 7-7 7s-7-3-8-7c0-4 4-8 8-8 4 1 7 4 7 8zm10 17c0 4-3 8-7 8s-8-4-8-8 4-8 8-8c4 1 7 4 7 8zm21-60 2-9h1l7 10v7c-1 2 2 8 3 11h-1c-2 1-4 0-7-1l-1-1v-8c0-3-4-5-4-9zm29 8 1-2c2-9 12-10 19-9v1l-4 3c-4 0-6 6-7 9-2 4 0 7 3 9v1c-4 3-7 1-9-3-2-3-3-5-3-9zm25 240 9-15 3-3 11-6c3-3 7 4 10 6 4 1 5 4 3 7l-7 11-2 2-13 10h-2v-1l-12-8v-3zm19-178c6 4 9 2 16 0s13 1 21-3h1l-1 1-8 6c-6 4-11 3-17 2-2-1-4 0-7 1-4 1-9-3-6-7h1zm2-14c6-2 8-9 14-10l10 1c-5 5-10 9-16 12-5 3-9 2-13-1-2-1-2-2 1-1l4-1z"/>
  <path fill="#756165" d="M355 51c7 10 13 22 15 34 1 5-1 8-5 11l-11 8-1-1-1-3 2-36v-2l-1-10 1-1h1z"/>
  <path fill="#818285" d="M632 477c-5 12-17 34-10 47 3 7 10 13 17 18v1c-6 6-13 8-21 6v-1c2-3 5-7 3-10-1-1-2-2-3-1-1 0-3 2-4 5-1 2-2 3-3 2l-4-2v-4c2-2 6-11-2-9l-1 1-5 5c0 1 0 1 0 0-16-9-21-29-13-45l1-1h1l2 10c2 6 8 17 15 12 6-3 10-16 12-22h1c2 1 5 2 6-2 0-2-3-4-5-5l-1-1c4-5 9-5 14-5v1zm-510-45-7-2v-1l49-21v1l-22 48h-1l-2-7 13-29-1-1-29 12zm-83 97c-1 2 0 3 1 3l1 1 14-4h2l2 1c1 1 0 1-1 1l-23 24h-2c-7-5-13-10-17-17v-1l24-23 1-1h1c1 0 2 2 1 3l-4 13z"/>
  <path fill="#8B8DA1" d="M230 150c-1 1-2 0-3-1-7-5-12-12-15-21 5-2 8-1 10 2l2 5c1 6 2 11 6 15zm6-17-2-2c-7-9-10-20-11-31l-1-5c3-1 6 0 9 2 5 5 3 15 2 21 0 7 1 10 3 15zm81-81 3 6 4 7c2 6 0 14-2 20-4 11-6 21-8 34-2-15-4-30-1-45l4-20v-2zm-50 74-2-2c-15-20-21-43-21-67 16-2 19 16 17 27v18c0 7 2 15 6 24z"/>
  <path fill="#8DC63F" d="m600 498 1 2-1 1c-6 4-8-11-9-14-1-6-6-10-3-17 4-10 13-15 17-23 2-5 3-10 2-15l-1-1 1-1c5 7 6 13 3 20l-7 10c-4 7-6 15-5 23 0 4 2 6 4 9l-3 4 1 2zm54-49c4-1 8-2 12-1v1l-17 12c-5 3-10 2-13-1s-5-4-8-2l-15 3h-1c5-6 12-9 19-10l9 1c5 1 9-1 14-3zm39 95c-7 3-15 5-23 5l-1 1-1-1c8-9 18-13 30-14 7-1 9-7 11-13 1-4 2-6 6-7 16-9 39-23 40-44h1l1 24c0 4 0 8-2 12-5 8-14 9-20 15-5 5-7 12-9 18-6 12-18 18-30 24-10 4-17 7-28 3-8-2-18-7-26-4l-1-1c6-9 15-6 24-6 10 2 23-3 29-12h-1zm26-122c0-7-7-10-12-13-17-7-36-5-52 1l-22 11v-1c11-12 23-18 40-22l25-7c9-3 19-3 24 4l4 7c4 13 2 26-7 36-5 6-16 14-23 8l-6-3c-5-2-4-6-8-9-3-2-7-1-11 1-12 5-26 7-38 5l-5-1v-1h1c11 0 21-3 30-8 5-2 9-5 16-5l22 1 13 2c5 1 9-2 9-6zm-273-58c13 4 28 1 37-9 7-8 13-15 24-14 5 0 12 1 20 4v1c-5 3-9 5-13 5-8 2-12 3-17 9-5 3-9 10-15 12-12 5-25 2-34-6l-3-3h1zm2-98h1l3 14c0 5-2 8-5 13s-8 12-14 17c-10 8-11 18-12 30v1l-1-1c-5-10-8-23-2-33 5-7 11-12 16-16 6-4 8-10 7-16v-3l7-6zm9 31c-1-10 3-17 8-25 1-2 6-1 8 0v1c0 5-5 8-8 10-4 5-6 9-7 13 0 2-1 2-1 1zm42 30c8-3 11-11 19-13h1c0 4 1 8-3 9-7 5-14 8-22 6v-1l5-1z"/>
  <path fill="#8F191E" d="m692 82 6 1h1l7-12 1-1 6 2 1-1 9-23 5-9 25-24-1-1h3l-14 53c0 4-1 5-3 7l-46 33-3 1-24-1v-1l17-8 2-2 8-14z"/>
  <path fill="#966329" d="M43 151h1c10 10 22 17 35 22v1l-8 10c-1 2-2 2-4 2-12-2-23-9-30-19v-3l6-13zm358 34c-7 4-14-5-16-10v-1c2-4 7-8 10-12h1c4 3 7 7 9 12 3 4-1 8-4 11zm53-79 5 8c1 1 2 3 1 4l-5 9c-1 2-1 6-3 8l-11 9h-2l-12-12v-1l1-1 23-23 3-1zm72-59 1 1 6-2 2-1c3 0 5 5 5 7l-1 2c-7 3-13 5-18 11h-3l-11-10c-1 0-2-1-1-2v-1c3-7 4-13 5-20l2-2c6 1 11 4 16 7 1 0 2 2 1 3-2 1-5 5-4 7zM79 158l8 4 1 1-5 6h-1c-14-5-26-12-35-23l-1-1 3-5 1-1h1c9 7 18 14 28 19z"/>
  <path fill="#968651" d="M159 242c0 5-5 10-12 11s-14-3-15-8c0-6 5-11 12-12s14 3 15 9zM41 335c3 4 7 10 12 13h2l2-2 1 2c-1 3-4 10-8 10l-5-1c-12-6-25-26-6-35l1 1c-1 4-1 8 1 12zm34-5c0 4-4 9-7 11h-1c-9-4-20-13-20-25 0-5 5-10 10-11h1c-2 3-2 6 0 9 1 5 9 18 16 16h1z"/>
  <path fill="#A4D38F" d="M433 492c1-3 5-3 6 0v3c1 3 0 3-2 1-2-1-4-2-4-4zm23 3c0 5-5 3-6-1l6-3h1l3 2v1l-3 1h-1zm-22 20c0 2 0 6-3 6-2 0-3-4-6-4-8 1-14 2-20 8l-1 1-1-1c-3-5 7-15 10-18 2-2 6-1 9-1 4 0 19-5 18 5l-2 2h-2l-2 2zm7-62c1-1 1-1 0 0-15 9-25 21-35 34-2 3-5 6-8 7l-2-1-4-14c-1-6 2-9 6-11 14-6 28-11 43-15zm4 77 2 1 1 1-2 2h-5l-2-3c0-3 1-4 4-4l2 2v1zm16 15 7 1 1 1-2 1-6 2c-4 1-6 0-7-4-1-3 1-4 3-4l4 3zm29-40 2 2-2 2-9 2c-3 1-11 8-12 1 0-3 2-7 4-9 5-3 12 1 17 2zm18 23c-2 2-4 3-7 2s-4-3-1-5c3-3 9-3 13-1 5 3 7 9 7 14l-1 2c-4 1-6-10-10-12h-1z"/>
  <path fill="#AA8487" d="M208 130h-1c0 1 0 1 0 0-2-4-7-21-1-24v1c4 4 10 8 10 14h-1c-4 1-6 4-7 9zm24-40c-7-1-11 1-14 6l-2 7c-1 2-1 2-2 1-6-10-6-20 1-29l6-5h1c1 8 5 13 10 20zm26-36-4-2c-10-3-18 2-20 11l-1 13 1 3c1 2 1 2-1 1-5-5-6-22-4-28 8-17 26-23 43-27l30-3c12 0 22 0 32 6 15 8 18 28 12 42-3 9-9 13-16 16h-1c3-9 2-17 0-26-1-4-3-9-6-12-4-3-12-3-15 3l-5 13c-1 3-2 3-2 0l3-16v-4l-2-2h-1l-3 4c-2 7-7 11-14 14-1 1-2 0-3-1v-1c-1-3-3-9-7-10-1-1-2 0-3 1s0 3 1 5c4 8 8 20 0 27v-1c1-12-3-21-14-26z"/>
  <path fill="#B62025" d="M752 14h3l-27 25-5 9-9 23-1 1-6-2-1 1-7 12h-1l-6-1 6-12c1-2 1-2-1-1l-25 15-4 4-5 15h-1l-1-3V79l1-4 31-43 5-4 54-14zM216 485v1c1 2 4 5 1 7h-3l-2 1c-1 6 0 13 2 19l-1 3-3 1-2-5c-1-9 4-17 0-26-3-6-5-10-6-18v-12c0-1-1-3-3-3-12-2 1-14 5-17l1 1 3 39c1 4 3 5 7 5l10 1 1 1-10 2zm11-46v-17l12-3v1l-11 19h-1zm24 17 7-11h1l13 9 18-21-16-13v-1l5-9 25-6 5 6-37 64-1-1v-3l-14 5h-1l8-16v-1l-12-1-1-1zm1 78 3 22c1 3 0 5-3 6-5-1-5-6-4-10l2-23c1-8-2-15-10-16-5-1-9 0-11 5-2 7 1 13 1 19 0 4-5 4-6 1-2-5 0-11 1-17 1-4-1-6-3-10v-3l1-1c0-2 1-2 2 0 1 3 5 2 7 1l14-6c4-1 5 3 6 6 4 10 6 20 7 29l-1 2c-3 3-4-3-5-5v-1l-1 1zm19-121-2 3-3-2 1-1 4-1v1zm-28 22 11 7-7 13-2 1-15-1-1-1v-7l16-28 3-2 14-3c1 0 1 0 0 0l-19 19v2zm83-8-24 8-1-1 12-20h1l12 12v1zm-41 141h-2c-1-1-2-1-2-3 0-5 1-9-2-12v-1l8-10c5-10 10-18 20-24l4 1 8 5h3l1-3c2-6 2-15 7-19 11-7 25 20 32 8l15-28h1v11l-2 2c-10 4-10 14-9 23l-1 3-4-1h-1v11l1 1-1 1c-8 1-4-6-5-10 0-1-1-2-3-1h-1c-2 0-3 2-3 4l1 22c0 4 2 9-2 11h-1c-2-1-2-2-2-5 2-14 5-29-4-41-5-8-13-5-14 4l-3 22 2 19c0 2 0 5-2 5-9 2-4-16-3-20s0-9-3-12c-1-2-6-6-8-6l-1 1c-2 2-5 1-7 2-4 1-6 6-6 10-1 4-1 7 1 11v5l-1 1c-4 2-4-5-3-7l-2-3h-1c-6 5-7 13-4 21 1 1 0 2-1 2zm15-107 30-11 1 1-11 18h-1l-15-7-1 1v25l-1 1-4-4h-1l-16 23-2 3-1-1-5-26 1-4 22-37 1 1 3 17zm59 0-14 20-20-9v-1l16-28 18 17v1zm-27-29 5 7-3 5h-1l-3-12h2zm70-273c-2-2-5-3-7-3-1 0-2-1-1-2v-1c0-3 5-2 7-1 9 4 15 12 19 23 1 2 0 3-1 4l-1 1-1 1-1-2c-3-8-6-15-14-20zm25 14c-4-13-10-22-24-26-1 0-2-1-1-2v-1c1-2 2-3 3-2 14 2 24 16 27 28l-2 3v1h-3v-1zm8-11c-3-12-10-21-22-25l-2-2v-1l3-2c14 3 24 16 27 29 1 1 0 2-1 3h-1c-2 1-3 0-4-2zm18-64h-3l-10-9a2 2 0 1 1-1-4h4l11 9 2 2-2 2h-1zm8-32c-3-9-13-38-28-30-5 3-7 7-9 11l-2 1c-5 1-3-5-2-8 4-5 11-11 17-11 17-1 26 23 30 36v3h-2c-1 1-3 0-4-2zm25 28c7-3 12-4 17-4 6 0 14-1 20 1 2 1 3 2 2 3l-2 1c-21-3-40 1-56 14h-3l-1-1 1-2c7-6 14-10 22-12zM89 130c0 4-4 8-8 8s-8-4-8-8 4-8 8-8 8 4 8 8z"/>
  <path fill="#BCBDC0" d="m631 496 8-19c1-3 4-4 7-5 8-3 15 0 21 8l1 2h-2c-9 3-14 9-14 20 0 7 4 16 8 24v1l-13 16h-1c-7-6-13-12-18-19-6-6 0-21 3-28zm5 23c-2-3-2-6 1-9 1 0 1 0 0 0-6 2-6 13 2 13 10-1 10-10 9-17 0-4-2-7-6-6l-3 2-1 1-1-2v-6 7c0 3 4 2 6 1l1 1c1 6 1 15-7 15h-1zM142 6h4l11 5-9 15-53 79c-3 5-9 11-15 12l-10 2-2-1-8-5c14-9 25-22 34-36l34-52 14-19zm245 292 10-12 4-3 38-35h1l3 6v2c-11 4-14 14-20 23-4 6-6 9-12 13l-22 7c-1 1-1 1-2-1zm44 58c3-5 10-8 14-14l3-3 56-49h1l7 8v4c-9 3-15 6-20 13l-10 18c-5 8-9 15-19 17-10 3-21 5-32 6zm56-139c-4 3-11 2-15-3v-1c-4-5-3-11 1-14s11-2 14 3c4 5 4 11 0 14v1zm7-160c11 6 25 9 21 25l-2 2c-15-1-29 2-42 9h-2c-10-12 1-22 9-32v-3h-1c-4-2-8-6-1-9 5-3 13-5 19-2h1c1 3-1 6-3 8l1 2zm30 110c-9 6-20 8-31 7v-1h-1c-13-3-16-17-7-26 9-10 25-15 38-11 8 2 14 10 10 19l-9 12z"/>
  <path fill="#BDAC76" d="m166 316-53 6-1-1 15-19h1l55-6-17 20zM95 209l22 92v1l-17 19-21-91 15-21h1z"/>
  <path fill="#D1B5D7" d="M442 495c2-6-2-9-7-9-5 1-6 6-4 9h-1c-4 1-9 2-9-4l3-6c9-11 22-16 30-28 0-1 0-1 0 0 5 12 19 20 31 22l1 2-1 2c-5 5-7 10-8 16l-1 1-4 1h-1l-10-1c-6 2-9 8-15 10l-1 1-1-2 1-11-2-2-1-1zm17 3c3-2 6-4 3-8-2-2-4-3-6-2l-6 2-3 2c-3 4 7 15 11 6h1zm38-45c-6 3-1 11 2 14 2 1 2 2 0 2-5-1-11-2-16-1l-7 1-1-1-11-12c-1-2-5-9-7-10v-1c8-1 17-2 25 1l15 6v1zm0 28c-5-4-12-6-17-9v-1h8c11 0 20 5 29 11l1 1c0 8 6 14 12 20 3 3 4 8 0 10-8 4-19-10-22-16-4-5-6-13-11-16z"/>
  <path fill="#D1B5D7" d="M508 431c-2 4 2 9 4 11 3 2 6 4 6 7 0 5 1 8 6 10 13 4 26 8 37 15l2 3c1 0 1 0 0 0-2 8-14 8-20 6-5-2-20-8-24-4h-1c-5-4-8-6-14-7v-1c2-4-4-9-5-13v-1c3-2 6-4 4-8l-4-2-12-5c-7-3-14-3-23-2-12 1-23 3-35 0-9-1-16-7-20-14-4-8-4-17 5-21h1c13 7 30 17 46 17s30-9 43-19h1c5 6 11 10 17 14v1l-14 13zm33-40c4 8-9 19-14 23h-1l-19-12v-1c5-4 29-22 34-10z"/>
  <path fill="#D1B5D7" d="m555 445-9-15c5-1 17-3 20 1 4 4-7 13-11 15v-1zm-44-7v-1l8-1 20-5h1l12 16v1c-5 2-11 3-17 3-3 0-8-2-13-1l-1-1c1-6-6-9-10-11z"/>
  <path fill="#D1D2D4" d="m130 515-7-14 1-1 9-7h1l15 3v-1l-8-19-1-6v-6h1c15-3 28-18 34-31h1c4 18 6 36 5 54h-1l-8 3c-1 1-2 2-1 3l5 5v1l-1 3v1l1 3 1 1c-6 14-18 23-32 27 0-5 1-10 4-14l-1-1h-2l-11 17h-1c-24 2-49-9-70 7v-1l24-36 1-1 15 3 25 8 1-1zm-74-74c3 9 6 17 7 25l4 16-1 1-37 24c-1 1-1 1 0 0 13-18 8-40 7-60-1-19 6-34 19-47v1l4 11 1 1 1-1 8-17v-2h1l8-2h1c2 3 3 4 6 5l5 2c2 2 5 2 6 0 3-3-1-5-2-7v-1a163 163 0 0 1 46 7c-14 7-28 18-32 34h-6l-4-1-21-8c-1-1-1-1 0 0l3 15-1 1-7 9-1 1-14-7h-1zm345-157-4 2-10 12c0-7 2-17 5-24 2-8 8-11 16-16 7-3 13-5 16-12l4-7 1-2 2 1 5 5 1 1-1 1-35 39zm166-41c-5 5-14 5-20 0-6-6-7-15-3-20 5-5 14-5 20 0s7 14 3 20z"/>
  <path fill="#E7E7E8" d="M676 485c-2-9-8-18-16-22v-1c1-8 13-11 20-11-1 3-3 7-2 11 1 3 4 5 7 5 7 1 7-8 7-13l1-1c6 2 12 2 17 1 22-5 24-36 23-54l1-1c5 5 9 11 12 18 18 33-7 65-34 82h-1c-1-4-3-10-7-11s-8 4-9 7c-2 5 4 9 8 11l1 1-1 1c-3 5-8 11-13 14h-1c-1-4-4-9-8-8-2 0-4 1-5 3-4 5 3 10 7 12v1c-6 7-14 10-23 7v-1c4-3 7-8 8-13 1-2 1-3-1-5l-6-9c-6-13 5-20 15-24 1 0 1 0 0 0zm41-3c21-13 34-37 23-62l-1 1c7 23-5 45-22 61zM124 295l-23-90h1l58-8h1l23 90-59 8h-1zm41-54c-2-9-11-15-21-13-11 1-19 8-18 17s10 15 20 14h1c10-1 19-9 18-18zm47-113c3 9 8 16 15 21 1 1 2 2 3 1l2 2v1-1h-1c-10-3-21-13-19-24zm32-71c0 24 6 47 21 67l2 2 2 2h-1l-6-5a70 70 0 0 1-20-57l2-9zm73-5v2l-4 20c-3 15-1 30 1 45v1a69 69 0 0 1 2-68h1zm207 115 9-12c4-9-2-17-10-19-13-4-29 1-38 11-9 9-6 23 7 26h1v1c-29-3-45-32-25-56 9-11 21-17 36-18 15-2 32 5 39 20 8 18-3 38-19 47zM222 95l1 5c1 11 4 22 11 31l2 2 2 2h-1c-13-9-18-23-15-40z"/>
  <path fill="#E7A023" d="m601 169 7-7h24c-2 3-6 6-9 6l-22 1zm39-39 36 3v1l-9 9-2 1-34-4 1-2 8-8zm5-6 1-1 12-11 31 3 2-1 35-26h1l-10 25c0 2-2 3-4 4l-20 11-6 1-42-5zm8 24-2 2-3 1-15-1-1-1v-3l1-1 19 1c2 1 2 1 1 2zm20-57 4-5 11-6h1l-5 10c-2 3-2 4-5 5l-10 5h-1l5-9zM81 492l-8 22-4 4-24 9-1-1 11-26 1-2 23-7v-1c-5-6-7-13-7-20 0-2 0-5-2-7l-8-15h1l10 8 2 1v-2c3-5 7-10 12-13v-1l-5-12v-1l16 9 1 1c7-1 13 0 20 4h1l19-10 1 1-10 18v2c3 6 5 13 4 20v2l9 15-1 1-12-6-4 4c-3 4-6 7-10 8l-1 1 1 1 7 10h-1l-14-7-4-1c-9-1-16-3-22-9h-1zm48-23c0-14-12-26-26-26-14-1-26 11-27 25v1c0 14 12 26 26 26h1c14 0 26-12 26-26z"/>
  <path fill="#EFD666" d="M120 348c-12 2-21 10-32 13l-2-1 17-21c3-3 7-6 11-7a599 599 0 0 1 53-8l-4 7c-6 16-17 27-33 33-13 5-29 5-41 11-2 1-2 1 0-1l14-13c5-3 14-8 17-13 1-1 1-1 0 0zm-66-80h-2c-10 11-23 20-37 27h-1c10-12 20-25 25-36 3-10 6-21 11-28 8-14 20-24 35-30l1 1c0 6 0 8-3 12-8 7-15 14-14 26 0 11 12 22 3 32l-10 9-26 17c-1 1-1 1 0 0l15-19c3-3 5-8 3-11z"/>
  <path fill="#FACA3F" d="M22 76c1 4 3 7 6 11 9 11 17 19 28 27l12 8 1 1c0 6 0 11 3 16 3 7 16 1 21-1h1l26 16 17 8c6 2 12 2 18 2v1l-8 5c-5 3-9 4-14 3a443 443 0 0 1-58-25l-15-11-27-23c-4-3-8-8-12-14l-2-4c-1-7 0-14 2-20h1zm238 411-26 11h-1l13-27v-1l-29-2-3-54h1l92-24h1l67 68-22 43-38-20v33h-1l-13-11-30 37h-1l-10-53zm48-16 1-1 41 22h1l17-33-62-62h-1l-84 22 2 43 33 2v1l-10 20h1l18-7 9 48 26-32 8 6v-29z"/>
  <path fill="#FACA3F" d="m265 416 21 16-15 18-24-16 17-18h1zm5 17v3l-5 5v1l5 3h1l9-12-14-11a1 1 0 0 0-2 0l-11 11v1l6 4h1l5-6 4 1h1zm30 5 26-8h1l4 17v1l-28 9-3-18v-1zm10 12c0-2-1-9 3-8l1 3 1 4 11-4 1-1-3-10-1 1-18 5-1 1 2 11h1l3-1v-1z"/>
  <path fill="#FCBC55" d="m608 162-7 7v-23l6-9 1 1v24zm15-45 2 19-1 1h-5v-17l3-3h1zm17 13-8 8-1 2-1-1-4-35v-2l9-8h1l4 36zm18-18-12 11-1 1v1l-1-1-4-44v-3l12-21c1-2 2-4 4-4l24-11c1-1 1-1 0 0l-25 36-1 4 4 31z"/>
  <path fill="#FFF" d="M596 368c-4-1-11-6-7-12l16-21c7-9 17 2 12 9l-15 21c-2 3-4 4-6 3zm37-106 11 3v1l-1 2h-1l-13 1-1-1 5-5v-1zm11 31-1 1-8-2-1-1 13-10h1l1 1-1 1-4 10zm4 9 5-2 4 9-15 7 6-14zm26-21-22 10v-1l3-7 11-5 8 3zm5-35-13 11h-1l3-12v-1l10 1v1zm-98 19 14-17h1l9 4-11 16-12-2-1-1zm61-8 17-9-2 9-7 3-8-2v-1zm-294 29-87 91h-2v-1l81-95 4-9 1-2 8-6c1-1 3 0 4 1l4 4 1 1c1 3 1 8-2 9l-8 4-4 3zm339-27-15 4v-1l12-11h1l3 7-1 1zm-7 16-8-3h-1l1-2h1l11-3 2 1-5 7h-1zm68-5-15 26h-1l-23-8v-1l14-17h25zm-300 69-3 3c-4 6-11 9-14 14-2 0-3-2-2-4 4-11 8-24 15-33 2-4 4-6 8-8l21-13c9-4 13-8 16-15 1-2 3-3 5-2l6 5-52 53zm172-57-15 6h-1l-4-14 19 2 1 6zm5-6 18-1v2l-15 10-3-11zm69 16-31 14-5-10 23-11h1l12 6v1zm-87 2 15-6 1 4-13 12-4-10h1zm89-34-7-17 10-9h1l14 26h-18zm2-39-16-2v-1l3-10 27 2-14 11zm-227 40c-10 0-22-6-27-13-8-9-15-18-26-22-3-2-3-3 1-3 7 0 15 2 24 7 3 1 5 4 7 8 6 9 13 16 22 20 3 2 2 3-1 3zM157 11c5 3 9 6 12 10 1 2 0 5-1 6l-38 60c-9 14-15 27-20 46l-2 9h-1l-9-5v-1l-4-15c-1 0-1 0 0 0 1-5 3-10 6-14l48-81 9-15zm78 355c-13-5-27-13-34-26v-2l4-6c1-1 3-2 4-1l26 21c3 2 6 1 10 0h2c1 0 2 2 1 3-1 4-7 13-13 11zm26-31c-1 5-4 10-9 11h-4c-13-4-29-14-35-27v-2l4-6c1-1 3-2 4-1 9 8 19 17 29 23 2 1 7-1 9-1l2 1v2zM86 469l-3-3v-1c5-9 10-18 20-17 12 0 28 19 18 31-4 4-9 6-14 9h-1l-4-2h-1c-6 5-12 1-16-4-3-5-1-8 1-12v-1zm10-12-5 7 1 3v1l8 1v-1l-4-11zm11 23 8-4v-1l-12-4v1l1 7 3 1zm-13-1c3 3 5-2 4-5l-1-1-4 1c-1 0-2 2-1 3l2 2zm436-160c-3-12-13-23-22-32l-11-11c-9-10-13-22-13-35v-1h2c6 14 16 25 30 33 7 3 11 15 13 22 2 8 3 15 3 23l-1 2-1-1zm133-80-31 16-10-4 44-21-3 9z"/>
</svg>
